<?xml version="1.0" encoding="UTF-8" standalone="no"?>
<svg
   width="32"
   height="32"
   id="svg2"
   version="1.1"
   sodipodi:docname="application-x-mimearchive.svg"
   inkscape:version="1.2.2 (b0a8486541, 2022-12-01)"
   xml:space="preserve"
   xmlns:inkscape="http://www.inkscape.org/namespaces/inkscape"
   xmlns:sodipodi="http://sodipodi.sourceforge.net/DTD/sodipodi-0.dtd"
   xmlns:xlink="http://www.w3.org/1999/xlink"
   xmlns="http://www.w3.org/2000/svg"
   xmlns:svg="http://www.w3.org/2000/svg"
   xmlns:rdf="http://www.w3.org/1999/02/22-rdf-syntax-ns#"
   xmlns:cc="http://creativecommons.org/ns#"
   xmlns:dc="http://purl.org/dc/elements/1.1/"><sodipodi:namedview
     pagecolor="#ffffff"
     bordercolor="#666666"
     borderopacity="1"
     objecttolerance="10"
     gridtolerance="10"
     guidetolerance="10"
     inkscape:pageopacity="0"
     inkscape:pageshadow="2"
     inkscape:window-width="1920"
     inkscape:window-height="1118"
     id="namedview47"
     showgrid="false"
     inkscape:zoom="7.375"
     inkscape:cx="11.254237"
     inkscape:cy="9.6271186"
     inkscape:window-x="0"
     inkscape:window-y="0"
     inkscape:window-maximized="1"
     inkscape:current-layer="svg2"
     inkscape:document-rotation="0"
     inkscape:showpageshadow="2"
     inkscape:pagecheckerboard="0"
     inkscape:deskcolor="#d1d1d1" /><defs
     id="defs4"><inkscape:path-effect
   effect="fillet_chamfer"
   id="path-effect877"
   is_visible="true"
   lpeversion="1"
   satellites_param="F,0,0,1,0,2,0,10 @ F,0,0,1,0,2,0,10 @ F,0,0,1,0,2,0,10 @ F,0,0,1,0,2,0,10"
   unit="px"
   method="auto"
   mode="F"
   radius="2"
   chamfer_steps="10"
   flexible="false"
   use_knot_distance="true"
   apply_no_radius="true"
   apply_with_radius="true"
   only_selected="false"
   hide_knots="false"
   nodesatellites_param="F,0,0,1,0,2,0,10 @ F,0,0,1,0,2,0,10 @ F,0,0,1,0,2,0,10 @ F,0,0,1,0,2,0,10" /><inkscape:path-effect
   effect="fillet_chamfer"
   id="path-effect875"
   is_visible="true"
   lpeversion="1"
   satellites_param="F,0,0,1,0,2,0,10 @ F,0,0,1,0,2,0,10 @ F,0,0,1,0,2,0,10 @ F,0,0,1,0,2,0,10"
   unit="px"
   method="auto"
   mode="F"
   radius="2"
   chamfer_steps="10"
   flexible="false"
   use_knot_distance="true"
   apply_no_radius="true"
   apply_with_radius="true"
   only_selected="false"
   hide_knots="false"
   nodesatellites_param="F,0,0,1,0,2,0,10 @ F,0,0,1,0,2,0,10 @ F,0,0,1,0,2,0,10 @ F,0,0,1,0,2,0,10" /><inkscape:path-effect
   effect="fillet_chamfer"
   id="path-effect873"
   is_visible="true"
   lpeversion="1"
   satellites_param="F,0,0,1,0,2,0,10 @ F,0,0,1,0,2,0,10 @ F,0,0,1,0,2,0,10 @ F,0,0,1,0,2,0,10"
   unit="px"
   method="auto"
   mode="F"
   radius="2"
   chamfer_steps="10"
   flexible="false"
   use_knot_distance="true"
   apply_no_radius="true"
   apply_with_radius="true"
   only_selected="false"
   hide_knots="false"
   nodesatellites_param="F,0,0,1,0,2,0,10 @ F,0,0,1,0,2,0,10 @ F,0,0,1,0,2,0,10 @ F,0,0,1,0,2,0,10" /><linearGradient
   id="linearGradient902"><stop
     id="stop898"
     offset="0"
     style="stop-color:#770087;stop-opacity:1;" /><stop
     id="stop900"
     offset="1"
     style="stop-color:#452981;stop-opacity:1" /></linearGradient><linearGradient
   id="linearGradient899"><stop
     id="stop895"
     style="stop-color:#f282f1;stop-opacity:1"
     offset="0" /><stop
     id="stop897"
     style="stop-color:#a56de2;stop-opacity:1"
     offset="1" /></linearGradient><linearGradient
   id="linearGradient916"><stop
     id="stop912"
     style="stop-color:#ffffff;stop-opacity:1"
     offset="0" /><stop
     id="stop914"
     style="stop-color:#fafafa;stop-opacity:1"
     offset="1" /></linearGradient><linearGradient
   id="linearGradient3688-166-749-654"><stop
     id="stop3088"
     style="stop-color:#181818;stop-opacity:1"
     offset="0" /><stop
     id="stop3090"
     style="stop-color:#181818;stop-opacity:0"
     offset="1" /></linearGradient><linearGradient
   id="linearGradient3688-464-309-604"><stop
     id="stop3094"
     style="stop-color:#181818;stop-opacity:1"
     offset="0" /><stop
     id="stop3096"
     style="stop-color:#181818;stop-opacity:0"
     offset="1" /></linearGradient><linearGradient
   id="linearGradient3702-501-757-795"><stop
     id="stop3100"
     style="stop-color:#181818;stop-opacity:0"
     offset="0" /><stop
     id="stop3102"
     style="stop-color:#181818;stop-opacity:1"
     offset="0.5" /><stop
     id="stop3104"
     style="stop-color:#181818;stop-opacity:0"
     offset="1" /></linearGradient><radialGradient
   xlink:href="#linearGradient3688-166-749-654"
   id="radialGradient4730"
   gradientUnits="userSpaceOnUse"
   gradientTransform="matrix(3.2060542,2.6349059e-7,-8.2185947e-8,1.0000077,36.981009,15.99962)"
   cx="4.9964824"
   cy="43.5"
   fx="4.9964824"
   fy="43.5"
   r="2.5" /><radialGradient
   xlink:href="#linearGradient3688-464-309-604"
   id="radialGradient4732"
   gradientUnits="userSpaceOnUse"
   gradientTransform="matrix(3.163875,0,0,0.99999995,-29.702994,-103.00012)"
   cx="4.9929786"
   cy="43.5"
   fx="4.9929786"
   fy="43.5"
   r="2.5" /><linearGradient
   xlink:href="#linearGradient3702-501-757-795"
   id="linearGradient4734"
   gradientUnits="userSpaceOnUse"
   gradientTransform="matrix(1.3928572,0,0,0.71428561,-0.0214163,28.42862)"
   x1="25.058096"
   y1="47.027729"
   x2="25.058096"
   y2="39.999443" /><linearGradient
   gradientTransform="matrix(1.4324324,0,0,1.4362832,-7.3783796,-7.3995521)"
   gradientUnits="userSpaceOnUse"
   xlink:href="#linearGradient3924-2-2-5-8"
   id="linearGradient3381-5-4"
   y2="46.230125"
   x2="38.660378"
   y1="5.8481169"
   x1="38.660378" /><linearGradient
   id="linearGradient3924-2-2-5-8"><stop
     offset="0"
     style="stop-color:#ffffff;stop-opacity:1"
     id="stop3926-9-4-9-6" /><stop
     offset="0.06316455"
     style="stop-color:#ffffff;stop-opacity:0.23529412"
     id="stop3928-9-8-6-5" /><stop
     offset="0.95056331"
     style="stop-color:#ffffff;stop-opacity:0.15686275"
     id="stop3930-3-5-1-7" /><stop
     offset="1"
     style="stop-color:#ffffff;stop-opacity:0.39215687"
     id="stop3932-8-0-4-8" /></linearGradient><linearGradient
   gradientTransform="matrix(0.47054764,0,0,0.47457626,-60.688645,-0.1484071)"
   gradientUnits="userSpaceOnUse"
   xlink:href="#linearGradient916"
   id="linearGradient5809"
   y2="55.027"
   x2="161.97743"
   y1="10.027002"
   x1="161.97743" /><linearGradient
   y2="63.027"
   x2="161.97743"
   y1="5.1520023"
   x1="161.97743"
   gradientTransform="matrix(0.4705882,0,0,0.47457626,-60.695255,-0.1484071)"
   gradientUnits="userSpaceOnUse"
   id="linearGradient910"
   xlink:href="#linearGradient899" /><linearGradient
   gradientUnits="userSpaceOnUse"
   y2="60"
   x2="32"
   y1="0"
   x1="32"
   id="linearGradient904"
   xlink:href="#linearGradient902" /><linearGradient
   y2="63.027"
   x2="161.97743"
   y1="5.1520023"
   x1="161.97743"
   gradientTransform="matrix(0.94117646,0,0,0.94915254,-73.044014,10.801587)"
   gradientUnits="userSpaceOnUse"
   id="linearGradient910-3"
   xlink:href="#linearGradient899" /><linearGradient
   y2="63.027"
   x2="161.97743"
   y1="5.1520023"
   x1="161.97743"
   gradientTransform="matrix(0.47054764,0,0,0.47457626,-76.305129,-44.360347)"
   gradientUnits="userSpaceOnUse"
   id="linearGradient910-5"
   xlink:href="#linearGradient899" /><filter
   inkscape:collect="always"
   style="color-interpolation-filters:sRGB"
   id="filter1218"
   x="-0.00052002417"
   width="1.00104"
   y="-0.00044569657"
   height="1.0008914"><feGaussianBlur
     inkscape:collect="always"
     stdDeviation="0.0051997931"
     id="feGaussianBlur1220" /></filter><inkscape:path-effect
   effect="fillet_chamfer"
   id="path-effect889"
   is_visible="true"
   lpeversion="1"
   satellites_param="F,0,0,1,0,1,0,10 @ F,0,0,1,0,1,0,10 @ F,0,0,1,0,1,0,10 @ F,0,0,1,0,1,0,10"
   unit="px"
   method="auto"
   mode="F"
   radius="1"
   chamfer_steps="10"
   flexible="false"
   use_knot_distance="true"
   apply_no_radius="true"
   apply_with_radius="true"
   only_selected="false"
   hide_knots="false"
   nodesatellites_param="F,0,0,1,0,1,0,10 @ F,0,0,1,0,1,0,10 @ F,0,0,1,0,1,0,10 @ F,0,0,1,0,1,0,10" /><inkscape:path-effect
   effect="fillet_chamfer"
   id="path-effect887"
   is_visible="true"
   lpeversion="1"
   satellites_param="F,0,0,1,0,1,0,10 @ F,0,0,1,0,1,0,10 @ F,0,0,1,0,1,0,10 @ F,0,0,1,0,1,0,10"
   unit="px"
   method="auto"
   mode="F"
   radius="1"
   chamfer_steps="10"
   flexible="false"
   use_knot_distance="true"
   apply_no_radius="true"
   apply_with_radius="true"
   only_selected="false"
   hide_knots="false"
   nodesatellites_param="F,0,0,1,0,1,0,10 @ F,0,0,1,0,1,0,10 @ F,0,0,1,0,1,0,10 @ F,0,0,1,0,1,0,10" /><inkscape:path-effect
   effect="fillet_chamfer"
   id="path-effect885"
   is_visible="true"
   lpeversion="1"
   satellites_param="F,0,0,1,0,1,0,10 @ F,0,0,1,0,1,0,10 @ F,0,0,1,0,1,0,10 @ F,0,0,1,0,1,0,10"
   unit="px"
   method="auto"
   mode="F"
   radius="1"
   chamfer_steps="10"
   flexible="false"
   use_knot_distance="true"
   apply_no_radius="true"
   apply_with_radius="true"
   only_selected="false"
   hide_knots="false"
   nodesatellites_param="F,0,0,1,0,1,0,10 @ F,0,0,1,0,1,0,10 @ F,0,0,1,0,1,0,10 @ F,0,0,1,0,1,0,10" /><radialGradient
   xlink:href="#linearGradient3688-166-749-654"
   id="radialGradient4730-06"
   gradientUnits="userSpaceOnUse"
   gradientTransform="matrix(3.2060542,2.6349059e-7,-8.2185947e-8,1.0000077,36.981009,15.99962)"
   cx="4.9964824"
   cy="43.5"
   fx="4.9964824"
   fy="43.5"
   r="2.5" /><radialGradient
   xlink:href="#linearGradient3688-166-749-654"
   id="radialGradient4732-2"
   gradientUnits="userSpaceOnUse"
   gradientTransform="matrix(3.163875,0,0,0.99999995,-29.702994,-103.00012)"
   cx="4.9929786"
   cy="43.5"
   fx="4.9929786"
   fy="43.5"
   r="2.5" /><radialGradient
   xlink:href="#linearGradient3688-166-749-654"
   id="radialGradient4730-0"
   gradientUnits="userSpaceOnUse"
   gradientTransform="matrix(3.2060542,2.6349059e-7,-8.2185947e-8,1.0000077,36.981009,15.99962)"
   cx="4.9964824"
   cy="43.5"
   fx="4.9964824"
   fy="43.5"
   r="2.5" /><radialGradient
   xlink:href="#linearGradient3688-166-749-654"
   id="radialGradient4732-6"
   gradientUnits="userSpaceOnUse"
   gradientTransform="matrix(3.163875,0,0,0.99999995,-29.702994,-103.00012)"
   cx="4.9929786"
   cy="43.5"
   fx="4.9929786"
   fy="43.5"
   r="2.5" /><radialGradient
   xlink:href="#linearGradient3688-166-749-654"
   id="radialGradient4730-9"
   gradientUnits="userSpaceOnUse"
   gradientTransform="matrix(3.2060542,2.6349059e-7,-8.2185947e-8,1.0000077,36.981009,15.99962)"
   cx="4.9964824"
   cy="43.5"
   fx="4.9964824"
   fy="43.5"
   r="2.5" /><radialGradient
   xlink:href="#linearGradient3688-166-749-654"
   id="radialGradient4732-4"
   gradientUnits="userSpaceOnUse"
   gradientTransform="matrix(3.163875,0,0,0.99999995,-29.702994,-103.00012)"
   cx="4.9929786"
   cy="43.5"
   fx="4.9929786"
   fy="43.5"
   r="2.5" /><style
   id="style321">.cls-2,.cls-3{fill:none;stroke-width:8px;stroke:#000000;stroke-linecap:round}.cls-2{stroke-miterlimit:10}.cls-3{stroke-linejoin:round}</style>
	

		
	
			
			
			
			
			
			
		</defs><metadata
     id="metadata7"><rdf:RDF><cc:Work
         rdf:about=""><dc:format>image/svg+xml</dc:format><dc:type
           rdf:resource="http://purl.org/dc/dcmitype/StillImage" /></cc:Work></rdf:RDF></metadata><path
     width="23.997931"
     height="28"
     rx="0"
     ry="0"
     x="4.0010357"
     y="2.7520487"
     id="rect4897-1"
     style="opacity:0.2;vector-effect:none;fill:#000000;fill-opacity:1;stroke:none;stroke-width:0.472558;stroke-linecap:butt;stroke-linejoin:miter;stroke-miterlimit:4;stroke-dasharray:none;stroke-dashoffset:0;stroke-opacity:1;filter:url(#filter1218)"
     inkscape:path-effect="#path-effect877"
     d="M 6.0010357,2.7520487 H 25.998966 a 2,2 45 0 1 2,2 V 28.752049 a 2,2 135 0 1 -2,2 H 6.0010357 a 2,2 45 0 1 -2,-2 V 4.7520487 a 2,2 135 0 1 2,-2 z"
     sodipodi:type="rect" /><path
     width="24"
     height="28"
     rx="0"
     ry="0"
     x="4"
     y="2"
     id="rect4897"
     style="opacity:1;vector-effect:none;fill:#eeeeee;fill-opacity:1;stroke:none;stroke-width:0.472578;stroke-linecap:butt;stroke-linejoin:miter;stroke-miterlimit:4;stroke-dasharray:none;stroke-dashoffset:0;stroke-opacity:1"
     inkscape:path-effect="#path-effect875"
     d="m 6,2 h 20 a 2,2 45 0 1 2,2 v 24 a 2,2 135 0 1 -2,2 H 6 A 2,2 45 0 1 4,28 V 4 A 2,2 135 0 1 6,2 Z"
     sodipodi:type="rect" /><g
     id="g1313"
     transform="matrix(0.73015875,0,0,0.73015875,-16.328126,-0.10014853)"
     style="fill:#808080;fill-opacity:1"><path
       d="m 53.014606,19.506725 a 0.97826085,0.97826085 0 0 1 0.978261,-0.978261 h 1.304347 a 0.978261,0.978261 0 0 1 0,1.956522 h -1.304347 a 0.97826085,0.97826085 0 0 1 -0.978261,-0.978261 z m 0.978261,-4.891305 a 0.978261,0.978261 0 0 0 0,1.956522 h 1.304347 a 0.978261,0.978261 0 0 0 0,-1.956522 z m -0.978261,-2.934782 a 0.97826085,0.97826085 0 0 1 0.978261,-0.978261 h 1.304347 a 0.978261,0.978261 0 0 1 0,1.956522 h -1.304347 a 0.97826085,0.97826085 0 0 1 -0.978261,-0.978261 z m 0.978261,-4.8913043 a 0.97826085,0.97826085 0 0 0 0,1.9565217 h 1.304347 a 0.97826085,0.97826085 0 0 0 0,-1.9565217 z M 53.014606,3.8545511 a 0.97826085,0.97826085 0 0 1 0.978261,-0.9782608 h 1.304347 a 0.97826085,0.97826085 0 0 1 0,1.9565217 H 53.992867 A 0.97826085,0.97826085 0 0 1 53.014606,3.8545511 Z M 50.731997,16.571942 a 0.978261,0.978261 0 0 0 0,1.956522 h 1.304348 a 0.978261,0.978261 0 0 0 0,-1.956522 z M 49.753736,13.63716 a 0.97826085,0.97826085 0 0 1 0.978261,-0.978261 h 1.304348 a 0.97826085,0.97826085 0 0 1 0,1.956521 h -1.304348 a 0.97826085,0.97826085 0 0 1 -0.978261,-0.97826 z m 0.978261,-4.8913046 a 0.97826085,0.97826085 0 0 0 0,1.9565216 h 1.304348 a 0.97826085,0.97826085 0 0 0 0,-1.9565216 z M 49.753736,5.8110728 A 0.97826085,0.97826085 0 0 1 50.731997,4.832812 h 1.304348 a 0.97826085,0.97826085 0 0 1 0,1.9565217 H 50.731997 A 0.97826085,0.97826085 0 0 1 49.753736,5.8110728 Z"
       id="path1293"
       style="fill:#808080;fill-opacity:1;stroke-width:1.30435" /><path
       fill-rule="evenodd"
       d="m 52.362432,21.137159 a 2.6086956,2.6086956 0 0 0 -2.608696,2.608696 v 5.543478 c 0,0.54 0.438261,0.978261 0.978261,0.978261 h 4.565217 a 0.97826085,0.97826085 0 0 0 0.978261,-0.978261 V 23.745855 A 2.6086956,2.6086956 0 0 0 53.66678,21.137159 Z m -0.652174,2.608696 a 0.6521739,0.6521739 0 0 1 0.652174,-0.652174 h 1.304348 a 0.6521739,0.6521739 0 0 1 0.652173,0.652174 v 4.565217 h -2.608695 z"
       id="path1295"
       style="fill:#808080;fill-opacity:1;stroke-width:1.30435" /></g><path
     y="6"
     x="0"
     height="8"
     width="18"
     id="rect7379"
     style="opacity:1;fill:#0066cc;fill-opacity:1;stroke:none;stroke-width:0.428245"
     inkscape:path-effect="#path-effect873"
     d="m 2,6 h 14 a 2,2 45 0 1 2,2 v 4 a 2,2 135 0 1 -2,2 L 2,14 A 2,2 45 0 1 0,12 V 8 A 2,2 135 0 1 2,6 Z"
     sodipodi:type="rect" /><g
     aria-label="mhtm"
     id="text224"
     style="font-size:6px;font-family:'Droid Sans';-inkscape-font-specification:'Droid Sans';fill:#000080"><path
       d="m 5.1884766,12.25 v -2.071289 q 0,-0.3808594 -0.1464844,-0.5712891 -0.1464844,-0.1904297 -0.4541016,-0.1904297 -0.2138672,0 -0.3632812,0.070312 -0.1494141,0.067383 -0.2460938,0.2021484 -0.09375,0.131836 -0.1376953,0.3310549 -0.043945,0.196289 -0.043945,0.454101 V 12.25 H 3.2607422 v -2.071289 q 0,-0.3808594 -0.1464844,-0.5712891 -0.1435547,-0.1904297 -0.4511719,-0.1904297 -0.2255859,0 -0.3779296,0.076172 -0.1523438,0.076172 -0.2460938,0.2255859 -0.09082,0.1494141 -0.1318359,0.366211 -0.038086,0.216797 -0.038086,0.498047 V 12.25 H 1.3359375 V 9.0332031 h 0.4335937 l 0.076172,0.4335938 H 1.875 Q 1.9453125,9.3408203 2.0419922,9.25 q 0.09668,-0.09375 0.2109375,-0.1552734 0.1171875,-0.061523 0.2460937,-0.09082 0.131836,-0.029297 0.2666016,-0.029297 0.3515625,0 0.5830078,0.1289062 0.234375,0.1289063 0.3457031,0.4042969 h 0.023437 q 0.076172,-0.1376953 0.1816407,-0.2373047 0.1083984,-0.099609 0.234375,-0.1640625 0.1289062,-0.067383 0.2695312,-0.099609 0.140625,-0.032227 0.2871094,-0.032227 0.5126953,0 0.7705078,0.28125 0.2607422,0.2783203 0.2607422,0.8935546 V 12.25 Z"
       style="fill:#ffffff"
       id="path391" /><path
       d="m 8.7216797,12.25 v -2.071289 q 0,-0.3808594 -0.1552734,-0.5712891 -0.1523438,-0.1904297 -0.4804688,-0.1904297 -0.2373047,0 -0.3984375,0.076172 -0.1611328,0.076172 -0.2607422,0.2255859 -0.09668,0.1494141 -0.140625,0.366211 -0.041016,0.216797 -0.041016,0.498047 V 12.25 H 6.7119141 V 7.6914062 h 0.5332031 v 1.3535157 l -0.023437,0.421875 h 0.029297 Q 7.3242187,9.3408203 7.4238281,9.25 7.5263672,9.15625 7.6464844,9.0947266 q 0.1201172,-0.061523 0.2548828,-0.09082 0.1347656,-0.029297 0.2753906,-0.029297 0.5361328,0 0.8056641,0.28125 0.2724609,0.2783203 0.2724609,0.8935546 V 12.25 Z"
       style="fill:#ffffff"
       id="path393" /><path
       d="m 11.217773,11.87207 q 0.05274,0 0.117188,-0.0059 0.06738,-0.0059 0.128906,-0.01465 0.06152,-0.0088 0.111328,-0.02051 0.05273,-0.01172 0.0791,-0.02051 v 0.404297 q -0.03809,0.01758 -0.09668,0.03516 -0.05859,0.01758 -0.128906,0.0293 -0.07031,0.01465 -0.146484,0.02051 -0.07617,0.0088 -0.149414,0.0088 -0.181641,0 -0.336915,-0.04687 -0.155273,-0.04687 -0.269531,-0.161133 -0.111328,-0.114258 -0.175781,-0.307617 -0.06445,-0.196289 -0.06445,-0.492188 V 9.4345703 H 9.8320313 V 9.1972656 L 10.286133,8.96875 10.514648,8.2949219 h 0.307618 v 0.7382812 h 0.808593 v 0.4013672 h -0.808593 v 1.8662107 q 0,0.28418 0.09082,0.427735 0.09375,0.143554 0.304687,0.143554 z"
       style="fill:#ffffff"
       id="path395" /><path
       d="m 16.130859,12.25 v -2.071289 q 0,-0.3808594 -0.146484,-0.5712891 -0.146484,-0.1904297 -0.454102,-0.1904297 -0.213867,0 -0.363281,0.070312 -0.149414,0.067383 -0.246094,0.2021484 -0.09375,0.131836 -0.137695,0.3310549 -0.04395,0.196289 -0.04395,0.454101 V 12.25 h -0.536133 v -2.071289 q 0,-0.3808594 -0.146484,-0.5712891 -0.143555,-0.1904297 -0.451172,-0.1904297 -0.225586,0 -0.37793,0.076172 -0.152344,0.076172 -0.246094,0.2255859 -0.09082,0.1494141 -0.131836,0.366211 -0.03809,0.216797 -0.03809,0.498047 V 12.25 H 12.27832 V 9.0332031 h 0.433594 l 0.07617,0.4335938 h 0.0293 Q 12.887695,9.3408203 12.984375,9.25 q 0.09668,-0.09375 0.210938,-0.1552734 0.117187,-0.061523 0.246093,-0.09082 0.131836,-0.029297 0.266602,-0.029297 0.351562,0 0.583008,0.1289062 0.234375,0.1289063 0.345703,0.4042969 h 0.02344 q 0.07617,-0.1376953 0.181641,-0.2373047 0.108398,-0.099609 0.234375,-0.1640625 0.128906,-0.067383 0.269531,-0.099609 0.140625,-0.032227 0.28711,-0.032227 0.512695,0 0.770507,0.28125 0.260742,0.2783203 0.260742,0.8935546 V 12.25 Z"
       style="fill:#ffffff"
       id="path397" /></g></svg>
